<?xml version="1.0" encoding="UTF-8"?>
<svg id="Layer_2" data-name="Layer 2" xmlns="http://www.w3.org/2000/svg" viewBox="0 0 55.56 33">
  <defs>
    <style>
      .cls-1 {
        fill: #fff;
      }
    </style>
  </defs>
  <g id="Layer_1-2" data-name="Layer 1">
    <path class="cls-1" d="M43.92,11.4c.09.1.45.25.58.26l9.72-3.83c1.15-.22,1.69.6,1.03,1.56-2.4,2.17-5.39,3.98-7.77,6.13-.53.48-.77.85-.23,1.48,2.36,2.07,5.24,3.85,7.55,5.93.89.81,1.21,1.92-.28,2.13-3.14-.93-6.08-2.52-9.17-3.6-.31-.11-.68-.33-.98-.22-.47.17-.54.57-.62.99-.65,3.19-.69,6.69-1.33,9.9-.43,1.15-1.79,1.15-2.17-.03-.65-3.29-.71-6.85-1.36-10.11-.09-.47-.53-.89-1.03-.74-2.86,1.04-5.7,2.49-8.57,3.47-.91.31-1.52.5-2.51.22-2.92-1.05-5.82-2.55-8.74-3.54-.31-.1-.48-.23-.79-.13-.52.17-.57.57-.65,1.03-.57,3.12-.65,6.49-1.23,9.6-.26,1.38-1.83,1.46-2.29.16-.52-3.13-.68-6.41-1.23-9.52-.12-.68-.17-1.37-1.05-1.32l-9.45,3.8c-1.31.27-1.79-.9-.93-1.81l7.63-6.02c.69-.59.72-.98.08-1.6-2.2-2.13-5.33-3.92-7.62-6.02-.95-.88-.52-2.02.85-1.73l9.4,3.76c.52.18.95-.15,1.09-.65L13.27.92c.41-1.32,1.67-1.17,1.93.16.59,2.94.73,6.13,1.25,9.1.11.64.13,1.42.92,1.49.61-.19,1.21-.4,1.81-.63,5.67-2.15,11.92-2.01,17.58.17.37.14.75.28,1.12.41.89.21,1.03-.43,1.17-1.13.62-3.1.75-6.45,1.34-9.57.25-1.18,1.49-1.22,1.87-.09l1.4,9.92c.04.17.15.55.26.67ZM31.34,12.5c-.98-.77-1.95-1.56-2.96-2.3-.87-.35-1.41.15-2.06.63-2.13,1.56-4.12,3.41-6.27,4.96-.64.75-.14,1.16.45,1.65,2.18,1.4,4.23,3.58,6.38,4.93.6.37,1.1.41,1.72.05,1.21-.72,2.95-2.26,4.13-3.18.47-.37,2.91-2.17,3.02-2.51.16-.5-.07-.74-.4-1.05-1.13-1.05-2.76-2.2-4.01-3.17Z"/>
  </g>
</svg>