<?xml version="1.0" encoding="UTF-8"?>
<svg id="Layer_2" data-name="Layer 2" xmlns="http://www.w3.org/2000/svg" viewBox="0 0 800 800">
  <defs>
    <style>
      .cls-1 {
        fill: rgba(255, 255, 255, 0);
      }

      .cls-2 {
        fill: #fff;
      }
    </style>
  </defs>
  <g id="Layer_1-2" data-name="Layer 1">
    <g>
      <rect class="cls-1" width="800" height="800"/>
      <path class="cls-2" d="M633.33,133.33H166.67c-55.23,0-100,44.77-100,100v333.33c0,55.23,44.77,100,100,100h466.67c55.23,0,100-44.77,100-100V233.33c0-55.23-44.77-100-100-100ZM611,200l-211,158.33-211-158.33h422ZM633.33,600H166.67c-18.41,0-33.33-14.92-33.33-33.33V241.67l246.67,185c5.77,4.33,12.79,6.67,20,6.67s14.23-2.34,20-6.67l246.67-185v325c0,18.41-14.92,33.33-33.33,33.33Z"/>
    </g>
  </g>
</svg>